<svg width="98" height="98" viewBox="0 0 98 98" fill="none" xmlns="http://www.w3.org/2000/svg">
<circle cx="49" cy="49" r="49" fill="#6AB4E5" fill-opacity="0.5"/>
<path d="M45.5 74C45.5 75.933 47.067 77.5 49 77.5C50.933 77.5 52.5 75.933 52.5 74L45.5 74ZM51.4749 21.5251C50.108 20.1583 47.892 20.1583 46.5251 21.5251L24.2513 43.799C22.8844 45.1658 22.8844 47.3819 24.2513 48.7487C25.6181 50.1156 27.8342 50.1156 29.201 48.7487L49 28.9497L68.799 48.7487C70.1658 50.1156 72.3819 50.1156 73.7487 48.7487C75.1156 47.3819 75.1156 45.1658 73.7487 43.799L51.4749 21.5251ZM52.5 74L52.5 24L45.5 24L45.5 74L52.5 74Z" fill="white"/>
</svg>
