<svg width="62" height="52" viewBox="0 0 62 52" fill="none" xmlns="http://www.w3.org/2000/svg">
<path d="M4 22.5C2.067 22.5 0.5 24.067 0.5 26C0.5 27.933 2.067 29.5 4 29.5L4 22.5ZM60.4749 28.4749C61.8417 27.108 61.8417 24.892 60.4749 23.5251L38.201 1.25126C36.8342 -0.115575 34.6181 -0.115575 33.2513 1.25126C31.8844 2.61809 31.8844 4.83417 33.2513 6.20101L53.0503 26L33.2513 45.799C31.8844 47.1658 31.8844 49.3819 33.2513 50.7487C34.6181 52.1156 36.8342 52.1156 38.201 50.7487L60.4749 28.4749ZM4 26L4 29.5L58 29.5L58 26L58 22.5L4 22.5L4 26Z" fill="#F0902A"/>
</svg>
