<svg width="33" height="16" viewBox="0 0 33 16" fill="none" xmlns="http://www.w3.org/2000/svg">
<path d="M0 2.08696C0 0.934362 1.36381 0 3.04615 0H29.9538C31.6362 0 33 0.934362 33 2.08696C33 3.23955 31.6362 4.17391 29.9538 4.17391H3.04615C1.36381 4.17391 0 3.23955 0 2.08696Z" fill="#F0902A"/>
<path d="M0 8C0 6.84741 1.36381 5.91304 3.04615 5.91304H29.9538C31.6362 5.91304 33 6.84741 33 8C33 9.15259 31.6362 10.087 29.9538 10.087H3.04615C1.36381 10.087 0 9.15259 0 8Z" fill="#F0902A"/>
<path d="M0 13.913C0 12.7604 1.36381 11.8261 3.04615 11.8261H29.9538C31.6362 11.8261 33 12.7604 33 13.913C33 15.0656 31.6362 16 29.9538 16H3.04615C1.36381 16 0 15.0656 0 13.913Z" fill="#F0902A"/>
</svg>
