<?xml version="1.0" standalone="no"?>
<!DOCTYPE svg PUBLIC "-//W3C//DTD SVG 20010904//EN"
 "http://www.w3.org/TR/2001/REC-SVG-20010904/DTD/svg10.dtd">
<svg version="1.0" xmlns="http://www.w3.org/2000/svg"
 width="240.000000pt" height="240.000000pt" viewBox="0 0 240.000000 240.000000"
 preserveAspectRatio="xMidYMid meet">

<g transform="translate(0.000000,240.000000) scale(0.100000,-0.100000)"
fill="#000000" stroke="none">
<path d="M166 2379 c-26 -20 -27 -24 -24 -108 3 -80 5 -86 25 -89 30 -4 45 28
42 91 l-3 52 667 3 667 2 2 -206 c3 -180 5 -208 20 -217 12 -8 21 -7 32 2 14
12 16 44 16 228 0 214 0 214 -25 238 l-24 25 -684 0 c-680 0 -684 0 -711 -21z"/>
<path d="M148 2071 c-10 -14 -12 -76 -8 -289 6 -319 1 -304 110 -310 l70 -4 0
-122 c0 -139 14 -176 75 -202 51 -21 1589 -21 1640 0 59 25 75 65 75 184 0
100 0 102 23 102 48 0 57 -26 57 -162 0 -117 -1 -126 -23 -146 -21 -19 -73
-29 -448 -82 -233 -34 -437 -66 -452 -72 -33 -13 -73 -61 -82 -101 -7 -26 -10
-27 -70 -27 -84 0 -95 -13 -95 -111 1 -51 7 -91 22 -129 19 -49 21 -81 25
-310 4 -214 7 -258 20 -272 14 -15 34 -18 128 -18 137 0 145 5 145 99 0 48 -4
63 -16 68 -28 11 -49 -11 -52 -56 l-3 -41 -74 0 -73 0 -4 243 c-4 219 -6 247
-26 299 -12 32 -22 80 -22 108 l0 50 125 0 125 0 0 -43 c0 -24 -11 -81 -25
-127 -20 -68 -25 -105 -25 -196 0 -104 2 -114 21 -124 39 -22 49 2 49 119 0
86 5 124 25 191 29 97 33 194 9 228 -13 19 -24 22 -80 22 -35 0 -64 3 -64 6 0
14 22 45 40 54 10 5 196 35 412 65 487 68 478 67 523 116 l35 39 0 150 0 150
-33 36 c-24 26 -43 37 -75 41 l-42 6 0 99 c0 109 -11 143 -57 174 -27 18 -61
19 -819 22 -870 3 -850 4 -891 -57 -19 -29 -23 -47 -23 -117 l0 -84 -55 0 -55
0 0 258 c0 238 -1 260 -18 275 -23 21 -28 21 -44 -2z m354 -455 c2 -97 6 -119
24 -142 37 -50 71 -69 130 -71 54 -1 55 -2 77 -44 44 -82 157 -113 225 -62 49
37 67 71 72 141 l5 67 185 5 c140 4 190 9 207 20 20 13 26 13 52 -3 16 -9 49
-17 73 -17 37 -1 46 -5 63 -32 34 -54 70 -73 133 -73 114 0 161 67 162 229 l0
99 52 -5 c34 -4 56 -12 65 -24 10 -13 13 -71 13 -241 0 -210 -1 -224 -20 -243
-20 -20 -33 -20 -803 -20 -692 0 -785 2 -805 16 -22 15 -22 19 -22 249 0 230
0 234 22 249 12 9 37 16 54 16 l32 0 4 -114z m1338 13 c0 -98 -1 -101 -29
-130 -37 -37 -79 -38 -120 -3 -17 14 -31 33 -31 42 0 35 -29 51 -84 45 -45 -5
-55 -2 -83 21 -38 32 -48 32 -85 1 -29 -25 -31 -25 -220 -25 -234 0 -228 3
-228 -111 0 -74 -1 -78 -31 -103 -35 -29 -58 -32 -98 -12 -29 16 -51 53 -51
90 0 33 -24 50 -57 41 -80 -19 -91 -18 -123 13 -29 30 -30 32 -30 131 l0 101
635 0 635 0 0 -101z"/>
<path d="M577 1038 c-40 -54 -77 -135 -77 -170 0 -129 183 -176 250 -65 36 58
22 117 -52 225 -24 35 -34 42 -63 42 -27 0 -39 -7 -58 -32z m115 -140 c9 -31
8 -41 -6 -63 -33 -51 -116 -23 -116 40 0 12 14 43 31 70 l31 49 24 -29 c14
-17 29 -47 36 -67z"/>
</g>
</svg>
